<?xml version="1.0" encoding="UTF-8" standalone="no"?>
<!-- Created with Inkscape (http://www.inkscape.org/) -->

<svg
   width="7.8204408mm"
   height="8.9999762mm"
   viewBox="0 0 7.8204408 8.9999762"
   version="1.1"
   id="svg1"
   xml:space="preserve"
   xmlns:xlink="http://www.w3.org/1999/xlink"
   xmlns="http://www.w3.org/2000/svg"
   xmlns:svg="http://www.w3.org/2000/svg"><defs
     id="defs1"><linearGradient
       id="linearGradient59"><stop
         style="stop-color:#4592fc;stop-opacity:1;"
         offset="0"
         id="stop59" /><stop
         style="stop-color:#8e38fd;stop-opacity:1;"
         offset="1"
         id="stop60" /></linearGradient><linearGradient
       xlink:href="#linearGradient59"
       id="linearGradient60"
       x1="143.02332"
       y1="33.964855"
       x2="150.84375"
       y2="33.964855"
       gradientUnits="userSpaceOnUse" /><linearGradient
       xlink:href="#linearGradient59"
       id="linearGradient80"
       gradientUnits="userSpaceOnUse"
       x1="143.02332"
       y1="33.964855"
       x2="150.84375"
       y2="33.964855" /><linearGradient
       xlink:href="#linearGradient59"
       id="linearGradient81"
       gradientUnits="userSpaceOnUse"
       x1="143.02332"
       y1="33.964855"
       x2="150.84375"
       y2="33.964855" /><linearGradient
       xlink:href="#linearGradient59"
       id="linearGradient82"
       gradientUnits="userSpaceOnUse"
       x1="143.02332"
       y1="33.964855"
       x2="150.84375"
       y2="33.964855" /></defs><g
     id="layer1"
     transform="translate(-46.596382,-130.7768)"><g
       id="g48"
       transform="translate(-96.426926,101.31193)"
       style="fill:url(#linearGradient60)"><path
         style="fill:url(#linearGradient80);stroke-linecap:round;stroke-linejoin:round;stroke-miterlimit:0;paint-order:fill markers stroke"
         d="m 145.32812,36.359375 a 0.21999951,0.21999951 0 0 0 -0.22265,0.21875 0.21999951,0.21999951 0 0 0 0.2168,0.222656 l 0.82031,0.0098 a 0.21999951,0.21999951 0 0 0 0.22265,-0.216797 0.21999951,0.21999951 0 0 0 -0.21679,-0.222656 z"
         id="path28" /><path
         style="fill:url(#linearGradient81);stroke-linecap:round;stroke-linejoin:round;stroke-miterlimit:0;paint-order:fill markers stroke"
         d="m 147.66406,33.019531 c -0.32425,0 -0.58984,0.265591 -0.58984,0.589844 v 4.263672 c 0,0.324253 0.26559,0.591797 0.58984,0.591797 h 2.58985 c 0.32425,0 0.58984,-0.267544 0.58984,-0.591797 v -4.263672 c 0,-0.324253 -0.26559,-0.589844 -0.58984,-0.589844 z m 0,0.359375 h 2.58985 c 0.13104,0 0.23047,0.09943 0.23046,0.230469 v 4.263672 c 0,0.13104 -0.0994,0.230469 -0.23046,0.230469 h -2.58985 c -0.13104,0 -0.23047,-0.09943 -0.23047,-0.230469 v -4.263672 c 0,-0.13104 0.0994,-0.230469 0.23047,-0.230469 z"
         id="rect47" /><path
         id="rect47-6"
         style="fill:url(#linearGradient82);stroke-linecap:round;stroke-linejoin:round;stroke-miterlimit:0;paint-order:fill markers stroke"
         d="m 143.8398,29.464868 c -0.44975,0 -0.81649,0.366734 -0.81649,0.816488 v 6.613033 c 0,0.449755 0.36674,0.818555 0.81649,0.818555 h 2.52646 c 0,0 0.034,-0.02377 0.049,-0.07294 0.015,-0.04918 0.0158,-0.172635 0,-0.220574 -0.0158,-0.04794 -0.049,-0.06615 -0.049,-0.06615 h -2.52646 c -0.25654,0 -0.45682,-0.202346 -0.45682,-0.458887 V 30.28136 c 0,-0.256541 0.20028,-0.457337 0.45682,-0.457337 h 4.254 c 0.25654,0 0.45682,0.200796 0.45682,0.457337 v 1.876888 c 0,0 0.0544,0.038 0.10121,0.04866 0.0468,0.01066 0.13185,0.01188 0.17554,0 0.0437,-0.01188 0.0829,-0.04866 0.0829,-0.04866 V 30.28136 c 0,-0.449754 -0.36674,-0.816488 -0.81649,-0.816488 z" /></g></g></svg>
