<?xml version="1.0" encoding="UTF-8" standalone="no"?>
<!-- Created with Inkscape (http://www.inkscape.org/) -->

<svg
   width="9.5520554mm"
   height="7.239594mm"
   viewBox="0 0 9.5520554 7.239594"
   version="1.1"
   id="svg1"
   xml:space="preserve"
   xmlns:xlink="http://www.w3.org/1999/xlink"
   xmlns="http://www.w3.org/2000/svg"
   xmlns:svg="http://www.w3.org/2000/svg"><defs
     id="defs1"><linearGradient
       id="linearGradient87"><stop
         style="stop-color:#4592fc;stop-opacity:1;"
         offset="0"
         id="stop87" /><stop
         style="stop-color:#8e38fd;stop-opacity:1;"
         offset="1"
         id="stop88" /></linearGradient><linearGradient
       xlink:href="#linearGradient87"
       id="linearGradient88"
       x1="0.00014664774"
       y1="194.02451"
       x2="511.99921"
       y2="194.02451"
       gradientUnits="userSpaceOnUse" /><linearGradient
       xlink:href="#linearGradient87"
       id="linearGradient89"
       gradientUnits="userSpaceOnUse"
       x1="0.00014664774"
       y1="194.02451"
       x2="511.99921"
       y2="194.02451" /></defs><g
     id="layer1"
     transform="translate(-18.603388,-146.36736)"><g
       style="clip-rule:evenodd;fill:url(#linearGradient88);fill-rule:evenodd;image-rendering:optimizeQuality;shape-rendering:geometricPrecision;text-rendering:geometricPrecision"
       id="g28"
       transform="matrix(0.01865639,0,0,0.01865639,18.603386,146.36736)"><path
         fill="#5865f2"
         fill-rule="nonzero"
         d="M 433.713,32.491 A 424.231,424.231 0 0 0 328.061,0.005 c -4.953,8.873 -9.488,18.156 -13.492,27.509 A 393.937,393.937 0 0 0 255.94,23.106 c -19.594,0 -39.284,1.489 -58.637,4.37 C 193.351,18.146 188.76,8.895 183.778,0 147.343,6.212 111.733,17.196 78.102,32.555 11.235,131.475 -6.886,227.923 2.174,323.001 a 425.967,425.967 0 0 0 129.563,65.03 c 10.447,-14.103 19.806,-29.116 27.752,-44.74 a 273.827,273.827 0 0 1 -43.716,-20.862 c 3.665,-2.658 7.249,-5.396 10.712,-8.055 40.496,19.019 84.745,28.94 129.514,28.94 44.77,0 89.019,-9.921 129.517,-28.943 3.504,2.86 7.088,5.598 10.712,8.055 a 275.576,275.576 0 0 1 -43.796,20.918 311.49,311.49 0 0 0 27.752,44.705 424.235,424.235 0 0 0 129.65,-65.019 l -0.011,0.011 C 520.455,212.781 491.661,117.219 433.713,32.491 Z M 170.948,264.529 c -25.249,0 -46.11,-22.914 -46.11,-51.104 0,-28.189 20.135,-51.304 46.029,-51.304 25.895,0 46.592,23.115 46.15,51.304 -0.443,28.19 -20.336,51.104 -46.069,51.104 z m 170.102,0 c -25.29,0 -46.069,-22.914 -46.069,-51.104 0,-28.189 20.135,-51.304 46.069,-51.304 25.934,0 46.472,23.115 46.029,51.304 -0.443,28.19 -20.296,51.104 -46.029,51.104 z"
         id="path1-8"
         style="fill:url(#linearGradient89)" /></g></g></svg>
