<?xml version="1.0" encoding="UTF-8" standalone="no"?>
<!-- Created with Inkscape (http://www.inkscape.org/) -->

<svg
   width="210mm"
   height="162.25mm"
   viewBox="0 0 210 162.25"
   version="1.1"
   id="svg1"
   xml:space="preserve"
   inkscape:version="1.4 (e7c3feb1, 2024-10-09)"
   sodipodi:docname="discord_logo.svg"
   xmlns:inkscape="http://www.inkscape.org/namespaces/inkscape"
   xmlns:sodipodi="http://sodipodi.sourceforge.net/DTD/sodipodi-0.dtd"
   xmlns="http://www.w3.org/2000/svg"
   xmlns:svg="http://www.w3.org/2000/svg"><sodipodi:namedview
     id="namedview1"
     pagecolor="#ffffff"
     bordercolor="#000000"
     borderopacity="0.25"
     inkscape:showpageshadow="2"
     inkscape:pageopacity="0.0"
     inkscape:pagecheckerboard="0"
     inkscape:deskcolor="#d1d1d1"
     inkscape:document-units="mm"
     inkscape:zoom="1.0636921"
     inkscape:cx="295.19821"
     inkscape:cy="310.24015"
     inkscape:window-width="2272"
     inkscape:window-height="1195"
     inkscape:window-x="40"
     inkscape:window-y="25"
     inkscape:window-maximized="0"
     inkscape:current-layer="layer1" /><defs
     id="defs1" /><g
     inkscape:label="Layer 1"
     inkscape:groupmode="layer"
     id="layer1"><path
       d="M 177.74361,13.575019 C 164.18926,7.233273 149.6963,2.6243581 134.54431,0 c -1.86084,3.3643317 -4.03485,7.8894368 -5.53374,11.489142 -16.10695,-2.4222827 -32.065796,-2.4222827 -47.876533,0 C 79.635432,7.8894368 77.412058,3.3643317 75.534568,0 60.366214,2.6243581 45.856617,7.2502092 32.302258,13.608604 4.9630045,54.921802 -2.4482179,95.208844 1.2574003,134.92382 19.39023,148.46498 36.963124,156.69084 54.239466,162.07359 c 4.265621,-5.87072 8.069975,-12.11144 11.347341,-18.68856 -6.24186,-2.37177 -12.220223,-5.29864 -17.869063,-8.69657 1.498614,-1.11025 2.964494,-2.27103 4.380722,-3.46537 34.453934,16.115 71.888994,16.115 105.931314,0 1.43288,1.19434 2.89848,2.35512 4.38073,3.46537 -5.66549,3.41457 -11.66021,6.34146 -17.90208,8.71352 3.27737,6.56017 7.06537,12.81781 11.34735,18.68824 17.29299,-5.38274 34.88217,-13.6083 53.01504,-27.1664 4.34799,-46.039786 -7.42761,-85.956846 -31.12721,-121.348801 z M 70.280688,110.49947 c -10.342722,0 -18.824605,-9.65556 -18.824605,-21.413647 0,-11.75809 8.300761,-21.430306 18.824605,-21.430306 10.524125,0 19.005709,9.655279 18.824596,21.430306 0.01633,11.758087 -8.300471,21.413647 -18.824596,21.413647 z m 69.566892,0 c -10.34274,0 -18.82461,-9.65556 -18.82461,-21.413647 0,-11.75809 8.30047,-21.430306 18.82461,-21.430306 10.52384,0 19.0057,9.655279 18.82459,21.430306 0,11.758087 -8.30075,21.413647 -18.82459,21.413647 z"
       fill="#5865f2"
       fill-rule="nonzero"
       id="path1"
       style="fill:#8c98ae;fill-opacity:1;stroke-width:0.817939" /></g></svg>
