<?xml version="1.0" encoding="UTF-8" standalone="no"?>
<!-- Created with Inkscape (http://www.inkscape.org/) -->

<svg
   width="8.6601181mm"
   height="8.4464321mm"
   viewBox="0 0 8.6601181 8.4464321"
   version="1.1"
   id="svg1"
   xml:space="preserve"
   xmlns:xlink="http://www.w3.org/1999/xlink"
   xmlns="http://www.w3.org/2000/svg"
   xmlns:svg="http://www.w3.org/2000/svg"><defs
     id="defs1"><linearGradient
       id="linearGradient92"><stop
         style="stop-color:#4592fc;stop-opacity:1;"
         offset="0"
         id="stop92" /><stop
         style="stop-color:#8e38fd;stop-opacity:1;"
         offset="1"
         id="stop93" /></linearGradient><linearGradient
       xlink:href="#linearGradient92"
       id="linearGradient93"
       x1="0"
       y1="7.8026414"
       x2="16"
       y2="7.8026414"
       gradientUnits="userSpaceOnUse"
       gradientTransform="matrix(0.54125503,0,0,0.54125503,34.943196,145.33464)" /></defs><g
     id="layer1"
     transform="translate(-34.943196,-145.33464)"><g
       id="g95"><path
         fill-rule="evenodd"
         clip-rule="evenodd"
         d="m 39.273236,145.33464 c -2.392347,0 -4.33004,1.93769 -4.33004,4.33004 0,1.91604 1.239474,3.53439 2.960665,4.10812 0.216502,0.0379 0.29769,-0.092 0.29769,-0.20567 0,-0.10284 -0.0054,-0.44383 -0.0054,-0.80647 -1.087923,0.20026 -1.369375,-0.26522 -1.455976,-0.50878 -0.04871,-0.12449 -0.259803,-0.50878 -0.443829,-0.61162 -0.151552,-0.0812 -0.368054,-0.28146 -0.0054,-0.28687 0.340991,-0.005 0.584556,0.31393 0.665744,0.44383 0.389703,0.65492 1.012147,0.47089 1.261124,0.35723 0.03789,-0.28145 0.151551,-0.47089 0.27604,-0.57914 -0.963434,-0.10825 -1.970168,-0.48172 -1.970168,-2.13796 0,-0.47089 0.167789,-0.8606 0.443829,-1.1637 -0.0433,-0.10825 -0.194852,-0.55208 0.0433,-1.14746 0,0 0.362641,-0.11366 1.190761,0.44383 0.346404,-0.0974 0.714457,-0.14614 1.08251,-0.14614 0.368054,0 0.736107,0.0487 1.08251,0.14614 0.828121,-0.56291 1.190762,-0.44383 1.190762,-0.44383 0.238152,0.59538 0.0866,1.03921 0.0433,1.14746 0.27604,0.3031 0.443829,0.68739 0.443829,1.1637 0,1.66165 -1.012147,2.02971 -1.975581,2.13796 0.156964,0.13531 0.292278,0.39511 0.292278,0.80105 0,0.57915 -0.0054,1.04463 -0.0054,1.19077 0,0.11366 0.08119,0.24897 0.297691,0.20567 1.710366,-0.57373 2.94984,-2.19749 2.94984,-4.10812 0,-2.39235 -1.937693,-4.33004 -4.330041,-4.33004 z"
         fill="#1b1f23"
         id="path1-0"
         style="fill:url(#linearGradient93);stroke:none;stroke-width:0.541255" /></g></g></svg>
