<?xml version="1.0" encoding="UTF-8" standalone="no"?>
<!-- Created with Inkscape (http://www.inkscape.org/) -->

<svg
   width="8.5818968mm"
   height="8.581913mm"
   viewBox="0 0 8.5818968 8.581913"
   version="1.1"
   id="svg1"
   xml:space="preserve"
   xmlns:xlink="http://www.w3.org/1999/xlink"
   xmlns="http://www.w3.org/2000/svg"
   xmlns:svg="http://www.w3.org/2000/svg"><defs
     id="defs1"><linearGradient
       id="linearGradient74"><stop
         style="stop-color:#4592fc;stop-opacity:1;"
         offset="0"
         id="stop74" /><stop
         style="stop-color:#8e38fd;stop-opacity:1;"
         offset="1"
         id="stop75" /></linearGradient><linearGradient
       xlink:href="#linearGradient74"
       id="linearGradient75"
       x1="81.752113"
       y1="78.775299"
       x2="90.334015"
       y2="78.775299"
       gradientUnits="userSpaceOnUse" /><linearGradient
       xlink:href="#linearGradient74"
       id="linearGradient83"
       gradientUnits="userSpaceOnUse"
       x1="81.752113"
       y1="78.775299"
       x2="90.334015"
       y2="78.775299" /><linearGradient
       xlink:href="#linearGradient74"
       id="linearGradient84"
       gradientUnits="userSpaceOnUse"
       x1="81.752113"
       y1="78.775299"
       x2="90.334015"
       y2="78.775299" /></defs><g
     id="layer1"
     transform="translate(-72.648416,-131.56042)"><g
       id="g36"
       transform="translate(-9.1036987,57.076066)"
       style="fill:url(#linearGradient75)"><path
         style="opacity:1;fill:url(#linearGradient83);fill-opacity:1;stroke:#202042;stroke-width:0;stroke-linecap:round;stroke-linejoin:round;stroke-miterlimit:0;stroke-dasharray:none;stroke-opacity:1;paint-order:fill markers stroke"
         d="m 86.253463,76.462133 -1.743549,2.562922 a 0.11041256,0.11041256 61.232658 0 0 0.09469,0.172465 l 1.112745,-0.03423 a 0.20386525,0.20386525 50.5606 0 1 0.205001,0.249224 l -0.317506,1.388171 a 0.1530511,0.1530511 25.650637 0 0 0.269114,0.12923 l 1.965979,-2.478845 a 0.11211456,0.11211456 63.171593 0 0 -0.0919,-0.181709 l -1.16661,0.04227 A 0.23694092,0.23694092 47.864605 0 1 86.338098,78.042667 L 86.53965,76.57208 a 0.15745742,0.15745742 21.015707 0 0 -0.286187,-0.109947 z"
         id="path32" /><path
         id="path33"
         style="opacity:1;fill:url(#linearGradient84);stroke-linecap:round;stroke-linejoin:round;stroke-miterlimit:0;paint-order:fill markers stroke"
         d="m 86.04281,74.484342 c -2.367323,0 -4.290694,1.923887 -4.290694,4.291211 0,0.544726 0.235428,1.411698 0.267794,1.482236 0.03237,0.07054 0.140329,0.07863 0.194712,0.06693 0.05438,-0.0117 0.103072,-0.0256 0.137297,-0.06672 0.03423,-0.04113 0.0547,-0.134216 0.03576,-0.203776 -0.01894,-0.06956 -0.215953,-0.810868 -0.215953,-1.278664 0,-2.140339 1.730742,-3.871081 3.871081,-3.871081 0.860832,-10e-7 1.654295,0.281363 2.296501,0.755509 H 87.9414 c -0.116032,6.76e-4 -0.209525,0.09533 -0.208773,0.211357 6.7e-4,0.115023 0.09375,0.208103 0.208773,0.208773 h 0.994255 c 0.120646,-4.96e-4 0.216072,-0.1023 0.208773,-0.222726 l -0.06253,-0.99219 c -0.0068,-0.115278 -0.105341,-0.203463 -0.220658,-0.197404 -0.116132,0.0068 -0.204649,0.106622 -0.197404,0.222725 l 0.03152,0.514697 C 87.964832,74.829175 87.043827,74.484342 86.04281,74.484342 Z m 3.836603,2.646041 c -0.06485,-4.6e-4 -0.147326,0.02385 -0.185937,0.07903 -0.04496,0.06424 -0.01228,0.234916 -0.01228,0.234916 0.177803,0.444695 0.232695,0.822515 0.232695,1.331226 0,2.140338 -1.730744,3.871083 -3.871082,3.871082 -0.957274,0 -1.831703,-0.347593 -2.506824,-0.921908 h 0.530201 c 0.11603,-3.92e-4 0.209753,-0.09481 0.209289,-0.210839 -3.9e-4,-0.115426 -0.09386,-0.2089 -0.209289,-0.20929 h -0.993738 c -0.12085,1.99e-4 -0.2166,0.102096 -0.20929,0.222725 l 0.06046,0.992188 c 0.0068,0.116132 0.106622,0.204649 0.222725,0.197404 0.116133,-0.0068 0.20465,-0.106623 0.197404,-0.222726 l -0.02481,-0.408243 c 0.741327,0.611387 1.68932,0.980302 2.723865,0.980302 2.367323,10e-7 4.291211,-1.923372 4.291211,-4.290695 0,-0.585764 -0.204298,-1.294162 -0.267575,-1.426302 -0.06328,-0.13214 -0.122176,-0.21841 -0.187025,-0.21887 z" /></g></g></svg>
