<?xml version="1.0" encoding="UTF-8" standalone="no"?>
<!-- Created with Inkscape (http://www.inkscape.org/) -->

<svg
   width="10.106634mm"
   height="8.7124615mm"
   viewBox="0 0 10.106634 8.7124615"
   version="1.1"
   id="svg1"
   xml:space="preserve"
   xmlns:xlink="http://www.w3.org/1999/xlink"
   xmlns="http://www.w3.org/2000/svg"
   xmlns:svg="http://www.w3.org/2000/svg"><defs
     id="defs1"><linearGradient
       id="linearGradient72"><stop
         style="stop-color:#4592fc;stop-opacity:1;"
         offset="0"
         id="stop72" /><stop
         style="stop-color:#8e38fd;stop-opacity:1;"
         offset="1"
         id="stop73" /></linearGradient><linearGradient
       xlink:href="#linearGradient72"
       id="linearGradient73"
       x1="128.03941"
       y1="152.95216"
       x2="139.46507"
       y2="152.95216"
       gradientUnits="userSpaceOnUse" /></defs><g
     id="layer1"
     transform="translate(-85.205562,-131.30797)"><g
       id="g31"
       transform="matrix(0.88455588,0,0,0.88455588,-46.004829,64.486975)"
       style="display:inline"><path
         id="rect39"
         style="display:inline;fill:url(#linearGradient73);stroke-linecap:round;stroke-linejoin:round;stroke-miterlimit:0;paint-order:fill markers stroke"
         d="m 129.14477,148.0274 c -0.60955,0 -1.10536,0.49786 -1.10536,1.10742 v 7.63675 c 0,0.60956 0.49581,1.10536 1.10536,1.10536 h 9.21287 c 0.60955,0 1.10743,-0.4958 1.10743,-1.10536 v -7.63675 c 0,-0.60956 -0.49788,-1.10742 -1.10743,-1.10742 z m 0,0.37672 h 9.21287 c 0.40747,0 0.73019,0.32323 0.73019,0.7307 v 1.4609 a 0.22,0.22 0 0 0 -0.0408,-0.004 h -10.56266 a 0.22,0.22 0 0 0 -0.0682,0.0181 v -1.47485 c 0,-0.40747 0.32117,-0.7307 0.72864,-0.7307 z m 0.70951,0.84233 a 0.29063264,0.29063264 0 0 0 -0.29094,0.29042 0.29063264,0.29063264 0 0 0 0.29094,0.29042 0.29063264,0.29063264 0 0 0 0.29042,-0.29042 0.29063264,0.29063264 0 0 0 -0.29042,-0.29042 z m 1.12552,0 a 0.29063264,0.29063264 0 0 0 -0.29094,0.29042 0.29063264,0.29063264 0 0 0 0.29094,0.29042 0.29063264,0.29063264 0 0 0 0.29042,-0.29042 0.29063264,0.29063264 0 0 0 -0.29042,-0.29042 z m 1.17615,0 a 0.29063264,0.29063264 0 0 0 -0.29094,0.29042 0.29063264,0.29063264 0 0 0 0.29094,0.29042 0.29063264,0.29063264 0 0 0 0.29042,-0.29042 0.29063264,0.29063264 0 0 0 -0.29042,-0.29042 z m -3.73982,1.76681 a 0.22,0.22 0 0 0 0.0682,0.0181 H 139.047 a 0.22,0.22 0 0 0 0.0408,-0.0109 v 5.75107 c 0,0.40747 -0.32272,0.72864 -0.73019,0.72864 h -9.21287 c -0.40747,0 -0.72864,-0.32117 -0.72864,-0.72864 z m 1.54461,1.27796 c -0.2221,0 -0.40618,0.18408 -0.40618,0.40618 v 3.08973 c 0,0.2221 0.18408,0.40618 0.40618,0.40618 h 2.69957 c 0.22209,0 0.40618,-0.18408 0.40618,-0.40618 v -3.08973 c 0,-0.2221 -0.18409,-0.40618 -0.40618,-0.40618 z m 4.4204,0.0336 c -0.12205,-3.9e-4 -0.22105,0.0987 -0.22066,0.22066 6.9e-4,0.12129 0.0994,0.2195 0.22066,0.21911 h 3.28714 c 0.12129,3.9e-4 0.21997,-0.0979 0.22065,-0.21911 3.9e-4,-0.12205 -0.0986,-0.22105 -0.22065,-0.22066 z m -4.4204,0.3452 h 2.69957 c 0.019,0 0.0289,0.008 0.0289,0.0274 v 3.08973 c 0,0.019 -0.01,0.0274 -0.0289,0.0274 h -2.69957 c -0.019,0 -0.0269,-0.008 -0.0269,-0.0274 v -3.08973 c 0,-0.019 0.008,-0.0274 0.0269,-0.0274 z m 4.4204,1.35806 a 0.22,0.22 0 0 0 -0.22066,0.22065 0.22,0.22 0 0 0 0.22066,0.2186 h 3.28714 a 0.22,0.22 0 0 0 0.22065,-0.2186 0.22,0.22 0 0 0 -0.22065,-0.22065 z m 0,1.72289 a 0.22,0.22 0 0 0 -0.22066,0.22066 0.22,0.22 0 0 0 0.22066,0.21859 h 2.15232 a 0.22,0.22 0 0 0 0.21859,-0.21859 0.22,0.22 0 0 0 -0.21859,-0.22066 z"
         transform="translate(20.295355,-72.485545)" /></g></g></svg>
