<?xml version="1.0" encoding="UTF-8" standalone="no"?>
<!-- Created with Inkscape (http://www.inkscape.org/) -->

<svg
   width="10.864396mm"
   height="7.5097003mm"
   viewBox="0 0 10.864396 7.5097003"
   version="1.1"
   id="svg1"
   xml:space="preserve"
   xmlns:xlink="http://www.w3.org/1999/xlink"
   xmlns="http://www.w3.org/2000/svg"
   xmlns:svg="http://www.w3.org/2000/svg"><defs
     id="defs1"><linearGradient
       id="linearGradient55"><stop
         style="stop-color:#4592fc;stop-opacity:1;"
         offset="0"
         id="stop55" /><stop
         style="stop-color:#8e38fd;stop-opacity:1;"
         offset="1"
         id="stop56" /></linearGradient><linearGradient
       xlink:href="#linearGradient55"
       id="linearGradient56"
       x1="35.453396"
       y1="33.545551"
       x2="46.317795"
       y2="33.545551"
       gradientUnits="userSpaceOnUse"
       gradientTransform="translate(-17.928736,102.11893)" /></defs><g
     id="layer1"
     transform="translate(-17.524658,-131.90967)"><path
       id="path23"
       style="fill:url(#linearGradient56);stroke-linecap:round;stroke-linejoin:round;stroke-miterlimit:0;paint-order:fill markers stroke"
       d="m 22.151251,131.90968 a 0.220022,0.220022 0 0 0 -0.196887,0.1173 l -0.86558,1.61696 h -1.870687 a 0.21999951,0.21999951 0 0 0 -0.221175,0.22066 0.21999951,0.21999951 0 0 0 0.221175,0.22066 h 1.634525 l -0.774629,1.44745 c -0.332783,-4.1e-4 -2.332674,-0.004 -2.332674,-0.004 a 0.21999951,0.21999951 0 0 0 -0.220659,0.22066 0.21999951,0.21999951 0 0 0 0.218592,0.21859 c 0,0 2.380559,0.004 2.484602,0.004 a 0.21999951,0.21999951 0 0 0 0.216008,-0.19068 l 1.834513,-3.43029 3.876766,0.0512 1.763717,3.24993 -1.747697,3.31246 -3.972884,0.0134 -1.388546,-2.57038 a 0.22,0.22 0 0 0 -0.29869,-0.0899 0.22,0.22 0 0 0 -0.08785,0.2992 l 0.436666,0.80822 -1.690853,-0.0289 a 0.21999951,0.21999951 0 0 0 -0.224792,0.21653 0.21999951,0.21999951 0 0 0 0.217041,0.22272 l 1.937866,0.0336 0.775147,1.43506 a 0.220022,0.220022 0 0 0 0.193269,0.11524 l 4.236434,-0.0155 a 0.220022,0.220022 0 0 0 0.195337,-0.11731 l 1.865003,-3.53312 a 0.220022,0.220022 0 0 0 -0.0021,-0.2067 l -1.880473,-3.46698 a 0.220022,0.220022 0 0 0 -0.191719,-0.11524 z" /></g></svg>
