<?xml version="1.0" encoding="UTF-8" standalone="no"?>
<svg
   width="2374"
   height="2655"
   viewBox="0 0 2374 2655"
   version="1.1"
   xml:space="preserve"
   style="clip-rule:evenodd;fill-rule:evenodd;stroke-linejoin:round;stroke-miterlimit:2"
   id="svg3"
   sodipodi:docname="NativeScript_Angular_Logo.svg"
   inkscape:version="1.4 (e7c3feb1, 2024-10-09)"
   xmlns:inkscape="http://www.inkscape.org/namespaces/inkscape"
   xmlns:sodipodi="http://sodipodi.sourceforge.net/DTD/sodipodi-0.dtd"
   xmlns:xlink="http://www.w3.org/1999/xlink"
   xmlns="http://www.w3.org/2000/svg"
   xmlns:svg="http://www.w3.org/2000/svg"><sodipodi:namedview
   id="namedview3"
   pagecolor="#ffffff"
   bordercolor="#000000"
   borderopacity="0.25"
   inkscape:showpageshadow="2"
   inkscape:pageopacity="0.0"
   inkscape:pagecheckerboard="0"
   inkscape:deskcolor="#d1d1d1"
   inkscape:zoom="0.32288991"
   inkscape:cx="1052.9905"
   inkscape:cy="1282.1707"
   inkscape:window-width="2304"
   inkscape:window-height="1255"
   inkscape:window-x="1935"
   inkscape:window-y="47"
   inkscape:window-maximized="0"
   inkscape:current-layer="g20" />
    
    
    <defs
   id="defs3"><linearGradient
   id="linearGradient15"
   x1="0.0085500861"
   y1="0.051421955"
   x2="0.97276884"
   y2="-0.031251285"
   gradientUnits="userSpaceOnUse"
   gradientTransform="matrix(2474.9067,-1712.315,1712.315,2474.9067,85,3037.315)"><stop
     offset="0"
     style="stop-color:#e40035;stop-opacity:1;"
     id="stop14" /><stop
     offset="0.19920319"
     style="stop-color:#f60a48;stop-opacity:1;"
     id="stop18" /><stop
     offset="0.4003984"
     style="stop-color:#f20755;stop-opacity:1;"
     id="stop17" /><stop
     offset="0.49915045"
     style="stop-color:#dc087d;stop-opacity:1;"
     id="stop19" /><stop
     offset="0.69721115"
     style="stop-color:#9717e7;stop-opacity:1;"
     id="stop16" /><stop
     offset="1"
     style="stop-color:#6c00f5;stop-opacity:1;"
     id="stop15" /></linearGradient><linearGradient
   id="linearGradient5"
   x1="0.0085500861"
   y1="0.051421955"
   x2="0.97276884"
   y2="-0.031251285"
   gradientUnits="userSpaceOnUse"
   gradientTransform="matrix(2474.9067,-1712.315,1712.315,2474.9067,85,3037.315)"><stop
     offset="0"
     style="stop-color:#ff5be1;stop-opacity:0;"
     id="stop4" /><stop
     offset="1"
     style="stop-color:#9719fb;stop-opacity:1;"
     id="stop5" /></linearGradient>
        <linearGradient
   id="_Linear1"
   x1="0.0085500861"
   y1="0.051421955"
   x2="0.97276884"
   y2="-0.031251285"
   gradientUnits="userSpaceOnUse"
   gradientTransform="matrix(2474.9067,-1712.315,1712.315,2474.9067,85,3037.315)"><stop
     offset="0"
     style="stop-color:#f9084a;stop-opacity:1;"
     id="stop2" /><stop
     offset="1"
     style="stop-color:#9719fb;stop-opacity:1;"
     id="stop3" /></linearGradient>
    <mask
   id="prefix__b"
   maskUnits="userSpaceOnUse"
   x="14"
   y="0"
   width="484"
   height="512"><path
     d="M 14,0 H 498 V 512 H 14 Z"
     fill="#ffffff"
     id="path2-9" /></mask><linearGradient
   id="prefix__paint0_linear_9_19"
   x1="120.4"
   y1="463.79999"
   x2="504"
   y2="281.39999"
   gradientUnits="userSpaceOnUse"><stop
     stop-color="#E40035"
     id="stop6" /><stop
     offset=".2"
     stop-color="#F60A48"
     id="stop7" /><stop
     offset=".4"
     stop-color="#F20755"
     id="stop8" /><stop
     offset=".5"
     stop-color="#DC087D"
     id="stop9" /><stop
     offset=".7"
     stop-color="#9717E7"
     id="stop10" /><stop
     offset="1"
     stop-color="#6C00F5"
     id="stop11" /></linearGradient><linearGradient
   id="prefix__paint1_linear_9_19"
   x1="103"
   y1="61.400002"
   x2="354"
   y2="348"
   gradientUnits="userSpaceOnUse"><stop
     stop-color="#FF31D9"
     id="stop12"
     offset="0" /><stop
     offset="1"
     stop-color="#FF5BE1"
     stop-opacity="0"
     id="stop13" /></linearGradient><linearGradient
   inkscape:collect="always"
   xlink:href="#linearGradient15"
   id="linearGradient1"
   gradientUnits="userSpaceOnUse"
   gradientTransform="matrix(2474.9067,-1712.315,1712.315,2474.9067,-2938.974,1274.1873)"
   x1="0.15607086"
   y1="0.15348722"
   x2="0.76982123"
   y2="0.22557367" /><linearGradient
   inkscape:collect="always"
   xlink:href="#linearGradient5"
   id="linearGradient2"
   gradientUnits="userSpaceOnUse"
   gradientTransform="matrix(2474.9067,-1712.315,1712.315,2474.9067,-2938.974,1274.1873)"
   x1="0.51654041"
   y1="0.2995576"
   x2="0.36993721"
   y2="-0.33811629" /></defs>
<g
   id="g20"><g
     id="g19"
     transform="translate(2948.8001,853.12765)"><path
       d="m -2938.974,-410.12765 190,1636.99995 987,573.964 -3,-2645.96395 z m 2353.99997,0 -190,1636.99995 -986.99997,573.964 -3,-2645.96395 z"
       style="clip-rule:evenodd;display:inline;fill:url(#linearGradient1);fill-rule:evenodd;stroke-linejoin:round;stroke-miterlimit:2"
       id="path1-0"
       inkscape:label="gradient1" /><path
       d="m -2938.974,-410.12765 190,1636.99995 987,573.964 -3,-2645.96395 z m 2353.99997,0 -189.99997,1636.99995 -987,573.964 -3,-2645.96395 z"
       style="clip-rule:evenodd;display:inline;fill:url(#linearGradient2);fill-rule:evenodd;stroke-linejoin:round;stroke-miterlimit:2"
       id="path1-0-9"
       inkscape:label="gradient2"
       sodipodi:nodetypes="cccccccccc" /></g><path
     style="clip-rule:evenodd;opacity:0.19;fill:#0f172a;fill-rule:evenodd;stroke:#70c4b9;stroke-width:0;stroke-linecap:round;stroke-linejoin:round;stroke-miterlimit:0;paint-order:fill markers stroke"
     d="m 1183.8261,8 3,2645.9639 987,-573.9639 190,-1637 z"
     id="path5"
     sodipodi:nodetypes="ccccc" /><path
     d="M 9.266,39.789 C 7.242,39.789 5.508,38.562 4.762,36.812 4.508,36.227 4.371,35.578 4.371,34.894 V 24.711 C 4.371,22.215 2.469,20.18 0.035,19.941 0.016,19.941 0,19.922 0,19.906 V 19.824 C 0,19.805 0.016,19.793 0.035,19.789 2.477,19.559 4.391,17.574 4.391,15.07 V 4.894 C 4.391,2.191 6.582,0 9.281,0 h 5.106 V 24.754 L 34.102,0.047 34.137,0 h 5.07 c 2,0 3.723,1.285 4.481,3.047 0.265,0.617 0.41,1.293 0.41,1.996 V 15.07 c 0,2.504 1.914,4.489 4.359,4.719 0.016,0.004 0.031,0.016 0.031,0.035 v 0.082 c 0,0.016 -0.015,0.035 -0.031,0.035 -2.437,0.239 -4.34,2.274 -4.34,4.77 v 10.183 c 0,2.704 -2.191,4.895 -4.89,4.895 H 34.102 V 15.055 l -19.715,24.711 -0.02,0.023 z"
     style="clip-rule:evenodd;display:inline;fill:#ffffff;fill-rule:nonzero;stroke-linejoin:round;stroke-miterlimit:2"
     id="path2"
     transform="matrix(31.370511,0,0,-31.370511,426.27945,1899.1248)" /></g></svg>
