<?xml version="1.0" encoding="UTF-8" standalone="no"?>
<svg
   width="2374"
   height="2653"
   viewBox="0 0 2374 2653"
   version="1.1"
   xml:space="preserve"
   style="clip-rule:evenodd;fill-rule:evenodd;stroke-linejoin:round;stroke-miterlimit:2"
   id="svg3"
   sodipodi:docname="NativeScript_Angular_Logo.svg"
   inkscape:version="1.4 (e7c3feb1, 2024-10-09)"
   xmlns:inkscape="http://www.inkscape.org/namespaces/inkscape"
   xmlns:sodipodi="http://sodipodi.sourceforge.net/DTD/sodipodi-0.dtd"
   xmlns="http://www.w3.org/2000/svg"
   xmlns:svg="http://www.w3.org/2000/svg"><sodipodi:namedview
   id="namedview3"
   pagecolor="#ffffff"
   bordercolor="#000000"
   borderopacity="0.25"
   inkscape:showpageshadow="2"
   inkscape:pageopacity="0.0"
   inkscape:pagecheckerboard="0"
   inkscape:deskcolor="#d1d1d1"
   inkscape:zoom="0.096654169"
   inkscape:cx="-1732.9827"
   inkscape:cy="558.69292"
   inkscape:window-width="2304"
   inkscape:window-height="1255"
   inkscape:window-x="1749"
   inkscape:window-y="36"
   inkscape:window-maximized="0"
   inkscape:current-layer="svg3" />
    
    
    <defs
   id="defs3">
        <linearGradient
   id="_Linear1"
   x1="0.0085500861"
   y1="0.051421955"
   x2="0.97276884"
   y2="-0.031251285"
   gradientUnits="userSpaceOnUse"
   gradientTransform="matrix(2474.9067,-1712.315,1712.315,2474.9067,85,3037.315)"><stop
     offset="0"
     style="stop-color:#f9084a;stop-opacity:1;"
     id="stop2" /><stop
     offset="1"
     style="stop-color:#9719fb;stop-opacity:1;"
     id="stop3" /></linearGradient>
    </defs>
<path
   d="M 85,1353 275,2990 1262,3563.964 1259,918 Z m 2354,0 -190,1637 -987,573.964 L 1259,918 Z"
   style="clip-rule:evenodd;display:inline;fill:url(#_Linear1);fill-rule:evenodd;stroke-linejoin:round;stroke-miterlimit:2"
   id="path1"
   transform="translate(-75.17389,-910)" /><path
   style="clip-rule:evenodd;fill-rule:evenodd;stroke-linejoin:round;stroke-miterlimit:0;fill:#0f172a;stroke:#70c4b9;stroke-width:0;stroke-linecap:round;paint-order:fill markers stroke;opacity:0.19"
   d="m 1183.8261,8 3,2645.964 987,-573.964 190,-1637 z"
   id="path5" /><path
   d="M 9.266,39.789 C 7.242,39.789 5.508,38.562 4.762,36.812 4.508,36.227 4.371,35.578 4.371,34.894 V 24.711 C 4.371,22.215 2.469,20.18 0.035,19.941 0.016,19.941 0,19.922 0,19.906 V 19.824 C 0,19.805 0.016,19.793 0.035,19.789 2.477,19.559 4.391,17.574 4.391,15.07 V 4.894 C 4.391,2.191 6.582,0 9.281,0 h 5.106 V 24.754 L 34.102,0.047 34.137,0 h 5.07 c 2,0 3.723,1.285 4.481,3.047 0.265,0.617 0.41,1.293 0.41,1.996 V 15.07 c 0,2.504 1.914,4.489 4.359,4.719 0.016,0.004 0.031,0.016 0.031,0.035 v 0.082 c 0,0.016 -0.015,0.035 -0.031,0.035 -2.437,0.239 -4.34,2.274 -4.34,4.77 v 10.183 c 0,2.704 -2.191,4.895 -4.89,4.895 H 34.102 V 15.055 l -19.715,24.711 -0.02,0.023 z"
   style="clip-rule:evenodd;display:inline;fill:#ffffff;fill-rule:nonzero;stroke-linejoin:round;stroke-miterlimit:2"
   id="path2"
   transform="matrix(31.370511,0,0,-31.370511,426.27945,1899.1248)" /></svg>
