<?xml version="1.0" encoding="UTF-8" standalone="no"?>
<!-- Created with Inkscape (http://www.inkscape.org/) -->

<svg
   width="14.152261mm"
   height="14.195419mm"
   viewBox="0 0 14.152261 14.195419"
   version="1.1"
   id="svg1"
   xml:space="preserve"
   inkscape:version="1.4 (e7c3feb1, 2024-10-09)"
   sodipodi:docname="Angular_ns_icons.svg"
   xmlns:inkscape="http://www.inkscape.org/namespaces/inkscape"
   xmlns:sodipodi="http://sodipodi.sourceforge.net/DTD/sodipodi-0.dtd"
   xmlns:xlink="http://www.w3.org/1999/xlink"
   xmlns="http://www.w3.org/2000/svg"
   xmlns:svg="http://www.w3.org/2000/svg"><sodipodi:namedview
     id="namedview1"
     pagecolor="#ffffff"
     bordercolor="#000000"
     borderopacity="0.25"
     inkscape:showpageshadow="2"
     inkscape:pageopacity="0.0"
     inkscape:pagecheckerboard="0"
     inkscape:deskcolor="#d1d1d1"
     inkscape:document-units="mm"
     inkscape:zoom="2.2113996"
     inkscape:cx="-566.15728"
     inkscape:cy="2064.5296"
     inkscape:window-width="2288"
     inkscape:window-height="1302"
     inkscape:window-x="1750"
     inkscape:window-y="35"
     inkscape:window-maximized="0"
     inkscape:current-layer="path33-4-3"><inkscape:page
       x="0"
       y="0"
       width="14.152261"
       height="14.195419"
       id="page2"
       margin="0"
       bleed="0" /></sodipodi:namedview><defs
     id="defs1"><linearGradient
       id="linearGradient34"
       inkscape:collect="always"><stop
         style="stop-color:#4592fc;stop-opacity:1;"
         offset="0"
         id="stop34" /><stop
         style="stop-color:#8e38fd;stop-opacity:1;"
         offset="1"
         id="stop35" /></linearGradient><linearGradient
       inkscape:collect="always"
       xlink:href="#linearGradient34"
       id="linearGradient35"
       x1="79.396378"
       y1="162.77754"
       x2="93.548645"
       y2="162.77754"
       gradientUnits="userSpaceOnUse"
       gradientTransform="translate(43.568647,-64.239316)" /></defs><g
     inkscape:label="Ciseal 1"
     inkscape:groupmode="layer"
     id="layer1"
     transform="translate(-122.96503,-91.440522)"><path
       id="path9"
       style="opacity:1;fill:url(#linearGradient35);stroke-linecap:round;stroke-linejoin:round;stroke-miterlimit:0;stroke-dashoffset:6.34959;paint-order:fill markers stroke"
       d="m 130.03156,91.440577 a 0.30003049,0.30003049 0 0 0 -0.13953,0.0346 v -5.2e-4 l -6.76548,3.56464 a 0.30003049,0.30003049 0 0 0 -0.002,0.53124 l 6.71845,3.6096 a 0.30003049,0.30003049 0 0 0 0.28319,0.002 l 6.81095,-3.61166 a 0.30003049,0.30003049 0 0 0 0,-0.53124 l -6.766,-3.56412 a 0.30003049,0.30003049 0 0 0 -0.13952,-0.0346 z m 10e-4,0.63975 6.12314,3.22668 -6.1681,3.26956 -6.0818,-3.26956 z m -5.1511,5.15783 a 0.30000049,0.30000049 0 0 0 -0.10853,0.0455 l -1.58388,1.05058 a 0.30003049,0.30003049 0 0 0 0.0233,0.51367 l 6.65437,3.556883 a 0.30003049,0.30003049 0 0 0 0.28112,0.002 l 6.78098,-3.576523 a 0.30003049,0.30003049 0 0 0 0.016,-0.52142 l -1.23455,-0.75603 a 0.30000049,0.30000049 0 0 0 -0.41186,0.0997 0.30000049,0.30000049 0 0 0 0.0992,0.41238 l 0.78341,0.48007 -6.17378,3.256133 -6.0663,-3.244243 1.16376,-0.7736 a 0.30000049,0.30000049 0 0 0 0.0842,-0.41599 0.30000049,0.30000049 0 0 0 -0.18965,-0.12868 0.30000049,0.30000049 0 0 0 -0.11782,-5.1e-4 z m 0.0294,3.195673 a 0.30000049,0.30000049 0 0 0 -0.10904,0.045 l -1.58388,1.05059 a 0.30003049,0.30003049 0 0 0 0.0238,0.51366 l 6.65231,3.55689 a 0.30003049,0.30003049 0 0 0 0.28112,0.002 l 6.78098,-3.57601 a 0.30003049,0.30003049 0 0 0 0.0176,-0.52194 l -1.23403,-0.7555 a 0.30000049,0.30000049 0 0 0 -0.41238,0.0992 0.30000049,0.30000049 0 0 0 0.0997,0.41238 l 0.78342,0.48059 -6.17378,3.25562 -6.06837,-3.2458 1.16582,-0.77153 a 0.30000049,0.30000049 0 0 0 0.0837,-0.41599 0.30000049,0.30000049 0 0 0 -0.18914,-0.12919 0.30000049,0.30000049 0 0 0 -0.11782,0 z" /></g></svg>
