<?xml version="1.0" encoding="UTF-8" standalone="no"?>
<!-- Created with Inkscape (http://www.inkscape.org/) -->

<svg
   width="8.1651745mm"
   height="8.2802439mm"
   viewBox="0 0 8.1651745 8.2802439"
   version="1.1"
   id="svg1"
   xml:space="preserve"
   xmlns:xlink="http://www.w3.org/1999/xlink"
   xmlns="http://www.w3.org/2000/svg"
   xmlns:svg="http://www.w3.org/2000/svg"><defs
     id="defs1"><linearGradient
       id="linearGradient76"><stop
         style="stop-color:#4592fc;stop-opacity:1;"
         offset="0"
         id="stop76" /><stop
         style="stop-color:#8e38fd;stop-opacity:1;"
         offset="1"
         id="stop77" /></linearGradient><linearGradient
       xlink:href="#linearGradient76"
       id="linearGradient77"
       x1="20.970703"
       y1="78.706055"
       x2="29.701172"
       y2="78.706055"
       gradientUnits="userSpaceOnUse" /><linearGradient
       xlink:href="#linearGradient76"
       id="linearGradient85"
       gradientUnits="userSpaceOnUse"
       x1="20.970703"
       y1="78.706055"
       x2="29.701172"
       y2="78.706055" /><linearGradient
       xlink:href="#linearGradient76"
       id="linearGradient86"
       gradientUnits="userSpaceOnUse"
       x1="20.970703"
       y1="78.706055"
       x2="29.701172"
       y2="78.706055" /></defs><g
     id="layer1"
     transform="translate(-60.149937,-130.87614)"><g
       id="g32"
       transform="matrix(0.93525015,0,0,0.93525015,40.537084,61.406413)"
       style="fill:url(#linearGradient77)"><path
         style="fill:url(#linearGradient85);stroke-linecap:round;stroke-linejoin:round;stroke-miterlimit:0;paint-order:fill markers stroke"
         d="m 21.740234,74.279297 c -0.423813,0 -0.769531,0.345717 -0.769531,0.769531 v 7.314453 c 0,0.423814 0.345717,0.769531 0.769531,0.769531 h 7.191407 c 0.423814,0 0.769531,-0.345717 0.769531,-0.769531 v -7.314453 c 0,-0.423814 -0.345718,-0.769531 -0.769531,-0.769531 z m 0,0.316406 h 7.191407 c 0.253944,0 0.453125,0.199181 0.453125,0.453125 v 7.314453 c 0,0.253944 -0.199182,0.453125 -0.453125,0.453125 h -7.191407 c -0.253943,0 -0.453125,-0.199181 -0.453125,-0.453125 v -7.314453 c 0,-0.253944 0.199181,-0.453125 0.453125,-0.453125 z"
         id="rect31" /><path
         style="-inkscape-font-specification:Arial;fill:url(#linearGradient86);stroke:#202042;stroke-width:0;stroke-linecap:round;stroke-linejoin:round;stroke-miterlimit:0;paint-order:fill markers stroke"
         d="m 25.793514,78.182449 v -2.514788 h -0.954541 v -0.38243 h 2.296431 v 0.38243 h -0.958493 v 2.514788 z m 1.725956,-0.496651 0.287161,-0.185355 c 0.08828,0.144348 0.211189,0.221516 0.364341,0.302562 0.131751,0.05665 0.279972,0.08498 0.444662,0.08498 0.146244,0 0.27536,-0.02174 0.387349,-0.06522 0.111989,-0.04348 0.194993,-0.102768 0.249011,-0.177864 0.05533,-0.07642 0.083,-0.15942 0.083,-0.249011 0,-0.09091 -0.02635,-0.16996 -0.07905,-0.237153 -0.0527,-0.06851 -0.139656,-0.125823 -0.260869,-0.171936 -0.07773,-0.0303 -0.249669,-0.07707 -0.515807,-0.140315 -0.266139,-0.06456 -0.452567,-0.125166 -0.559286,-0.181817 -0.138339,-0.07246 -0.241764,-0.162055 -0.310275,-0.268774 -0.06719,-0.108036 -0.10079,-0.228589 -0.10079,-0.361658 0,-0.146244 0.0415,-0.282607 0.124505,-0.409089 0.083,-0.127799 0.204216,-0.224636 0.363635,-0.290512 0.159419,-0.06587 0.336625,-0.09881 0.531618,-0.09881 0.214755,0 0.403818,0.03491 0.56719,0.104743 0.16469,0.06851 0.291172,0.169959 0.379445,0.304346 0.08827,0.134387 0.08505,0.205492 0.129629,0.334917 l -0.367587,0.02767 c -0.03242,-0.125229 -0.07429,-0.199872 -0.188917,-0.293415 -0.113307,-0.09354 -0.28129,-0.140316 -0.50395,-0.140316 -0.231883,0 -0.401184,0.04282 -0.507903,0.128458 -0.105401,0.08432 -0.158102,0.186429 -0.158102,0.306322 0,0.104084 0.03755,0.189723 0.112648,0.256916 0.07378,0.06719 0.266138,0.136363 0.577072,0.207509 0.312251,0.06983 0.526348,0.131093 0.642289,0.183793 0.168642,0.07773 0.293147,0.176548 0.373516,0.296442 0.08037,0.118576 0.120553,0.255598 0.120553,0.411065 0,0.154149 -0.04414,0.299735 -0.132411,0.436756 -0.08827,0.135705 -0.215413,0.241765 -0.38142,0.318181 -0.16469,0.0751 -0.35046,0.112647 -0.55731,0.112647 -0.262185,0 -0.482211,-0.03821 -0.660076,-0.114624 -0.204519,-0.09084 -0.36897,-0.207801 -0.453871,-0.431438 z"
         id="text32"
         aria-label="TS"
         transform="scale(0.95633134,1.0456627)" /></g></g></svg>
