<?xml version="1.0" encoding="UTF-8" standalone="no"?>
<!-- Created with Inkscape (http://www.inkscape.org/) -->

<svg
   width="12.849611mm"
   height="11.210283mm"
   viewBox="0 0 12.849611 11.210283"
   version="1.1"
   id="svg1"
   xml:space="preserve"
   inkscape:version="1.4 (e7c3feb1, 2024-10-09)"
   sodipodi:docname="Angular_ns_icons.svg"
   xmlns:inkscape="http://www.inkscape.org/namespaces/inkscape"
   xmlns:sodipodi="http://sodipodi.sourceforge.net/DTD/sodipodi-0.dtd"
   xmlns:xlink="http://www.w3.org/1999/xlink"
   xmlns="http://www.w3.org/2000/svg"
   xmlns:svg="http://www.w3.org/2000/svg"><sodipodi:namedview
     id="namedview1"
     pagecolor="#ffffff"
     bordercolor="#000000"
     borderopacity="0.25"
     inkscape:showpageshadow="2"
     inkscape:pageopacity="0.0"
     inkscape:pagecheckerboard="0"
     inkscape:deskcolor="#d1d1d1"
     inkscape:document-units="mm"
     inkscape:zoom="2.2113996"
     inkscape:cx="-566.15728"
     inkscape:cy="2064.5296"
     inkscape:window-width="2288"
     inkscape:window-height="1302"
     inkscape:window-x="1750"
     inkscape:window-y="35"
     inkscape:window-maximized="0"
     inkscape:current-layer="path33-4-3"><inkscape:page
       x="0"
       y="1.0433742e-14"
       width="12.849611"
       height="11.210282"
       id="page2"
       margin="0"
       bleed="0" /></sodipodi:namedview><defs
     id="defs1"><linearGradient
       id="linearGradient36"
       inkscape:collect="always"><stop
         style="stop-color:#4592fc;stop-opacity:1;"
         offset="0"
         id="stop36" /><stop
         style="stop-color:#8e38fd;stop-opacity:1;"
         offset="1"
         id="stop37" /></linearGradient><linearGradient
       inkscape:collect="always"
       xlink:href="#linearGradient36"
       id="linearGradient37"
       x1="76.066353"
       y1="161.84238"
       x2="87.755241"
       y2="170.61018"
       gradientUnits="userSpaceOnUse"
       gradientTransform="translate(50.96539,9.4911681)" /></defs><g
     inkscape:label="Ciseal 1"
     inkscape:groupmode="layer"
     id="layer1"
     transform="translate(-126.81789,-170.73859)"><path
       id="path11"
       style="opacity:0.85;fill:url(#linearGradient37);stroke-linecap:round;stroke-linejoin:round;stroke-miterlimit:0;stroke-dashoffset:6.34959;paint-order:fill markers stroke"
       d="m 129.6753,170.73922 c -0.25047,-0.004 -0.48842,0.0109 -0.71159,0.0408 -1.19024,0.15937 -1.98075,0.71675 -1.98075,0.71675 a 0.30003049,0.30003049 0 0 0 -0.12661,0.23823 c 0,0 -0.0466,2.23804 -0.0372,4.46898 0.005,1.11547 0.0241,2.22857 0.0703,3.06648 0.0231,0.41896 0.0524,0.76749 0.0935,1.02526 0.0206,0.12889 0.0406,0.23366 0.078,0.33228 0.0187,0.0493 0.0397,0.098 0.092,0.15813 0.0523,0.0601 0.18163,0.14102 0.31471,0.11885 a 0.30003049,0.30003049 0 0 0 0.14004,-0.0641 0.29362124,0.30000049 0 0 0 5.2e-4,0 0.29362124,0.30000049 0 0 0 0.20464,0.0992 h 4.18785 c 0.58593,0.43587 0.94723,0.8692 0.94723,0.8692 a 0.30003049,0.30003049 0 0 0 0.22118,0.10439 0.30003049,0.30003049 0 0 0 0.36845,-0.0692 c 0,0 0.37977,-0.45675 0.99581,-0.90434 h 4.4111 a 0.29362124,0.30000049 0 0 0 0.0455,-0.0129 0.30003049,0.30003049 0 0 0 0.0284,0.0129 c 0.13308,0.0222 0.26396,-0.0572 0.31626,-0.1173 0.0523,-0.0601 0.0712,-0.11037 0.0899,-0.15968 0.0374,-0.0986 0.0595,-0.20132 0.0801,-0.33021 0.0411,-0.25777 0.0704,-0.6063 0.0935,-1.02526 0.0462,-0.83791 0.0635,-1.95101 0.0682,-3.06648 0.009,-2.23094 -0.0367,-4.46898 -0.0367,-4.46898 a 0.30003049,0.30003049 0 0 0 -0.12713,-0.23823 c 0,0 -0.79,-0.55739 -1.98024,-0.71675 -1.15005,-0.15399 -2.70078,0.0755 -4.25865,1.45779 -1.26951,-1.14316 -2.53669,-1.5173 -3.58842,-1.53582 z m -0.0233,0.60099 c 0.92609,0.0151 2.04576,0.35108 3.22771,1.42214 v 7.57783 0.59996 0.0667 c -0.0201,-0.0213 -0.041,-0.0449 -0.061,-0.0667 l -0.63356,-0.59996 c -0.16652,-0.12419 -0.36962,-0.25487 -0.63975,-0.39429 -1.04874,-0.54125 -2.51069,-0.67614 -3.96255,0.29145 -0.003,-0.0163 -0.005,-0.0177 -0.008,-0.0356 -0.0346,-0.21686 -0.0633,-0.55606 -0.0858,-0.9648 -0.045,-0.81748 -0.0656,-1.92453 -0.0703,-3.03496 -0.009,-2.12441 0.0335,-4.07826 0.0372,-4.25969 0.0891,-0.0599 0.61932,-0.43666 1.58802,-0.56637 0.19154,-0.0256 0.39452,-0.0391 0.60823,-0.0357 z m 7.18095,0.0351 c 0.21371,-0.004 0.41762,0.01 0.60927,0.0357 0.9688,0.12972 1.50054,0.50858 1.58957,0.56844 0.004,0.18306 0.0441,2.13621 0.0351,4.25969 -0.005,1.11043 -0.0232,2.21748 -0.0682,3.03496 -0.0225,0.40874 -0.0533,0.74637 -0.0879,0.96324 -0.003,0.0179 -0.005,0.0188 -0.008,0.0351 -1.45182,-0.96751 -2.91229,-0.83062 -3.961,-0.28938 -0.24363,0.12574 -0.43186,0.24405 -0.58963,0.35708 l -0.65267,0.59996 c -0.0307,0.0337 -0.0628,0.0693 -0.0935,0.10181 v -0.10181 -0.59996 -7.53856 c 1.18267,-1.07264 2.30062,-1.41064 3.22667,-1.42627 z m -7.25072,8.66717 c 0.49874,-0.0117 0.9652,0.11254 1.39217,0.29766 h -2.59002 c 0.41468,-0.20022 0.81563,-0.2887 1.19785,-0.29766 z m 7.32152,0.0367 c 0.35625,0.008 0.72897,0.0885 1.11363,0.26097 h -2.42053 c 0.40346,-0.16473 0.84145,-0.27177 1.3069,-0.26097 z m -9.53378,0.23203 c 0.005,-8.7e-4 0.006,0.004 0.0114,0.004 -0.0318,0.0238 -0.0624,0.0261 -0.0935,0.0336 z m 11.7476,0.0372 0.0806,0.0362 c -0.0305,-0.007 -0.0608,-0.009 -0.092,-0.032 0.005,4.7e-4 0.006,-0.005 0.0114,-0.004 z" /></g></svg>
