<?xml version="1.0" encoding="UTF-8" standalone="no"?>
<!-- Created with Inkscape (http://www.inkscape.org/) -->

<svg
   width="8.5017414mm"
   height="11.994407mm"
   viewBox="0 0 8.5017414 11.994407"
   version="1.1"
   id="svg1"
   xml:space="preserve"
   inkscape:version="1.4 (e7c3feb1, 2024-10-09)"
   sodipodi:docname="Angular_ns_icons.svg"
   xmlns:inkscape="http://www.inkscape.org/namespaces/inkscape"
   xmlns:sodipodi="http://sodipodi.sourceforge.net/DTD/sodipodi-0.dtd"
   xmlns:xlink="http://www.w3.org/1999/xlink"
   xmlns="http://www.w3.org/2000/svg"
   xmlns:svg="http://www.w3.org/2000/svg"><sodipodi:namedview
     id="namedview1"
     pagecolor="#ffffff"
     bordercolor="#000000"
     borderopacity="0.25"
     inkscape:showpageshadow="2"
     inkscape:pageopacity="0.0"
     inkscape:pagecheckerboard="0"
     inkscape:deskcolor="#d1d1d1"
     inkscape:document-units="mm"
     inkscape:zoom="2.2113996"
     inkscape:cx="-566.15728"
     inkscape:cy="2064.5296"
     inkscape:window-width="2288"
     inkscape:window-height="1302"
     inkscape:window-x="1750"
     inkscape:window-y="35"
     inkscape:window-maximized="0"
     inkscape:current-layer="path33-4-3"><inkscape:page
       x="0"
       y="0"
       width="8.5017414"
       height="11.994407"
       id="page2"
       margin="0"
       bleed="0" /></sodipodi:namedview><defs
     id="defs1"><linearGradient
       id="linearGradient18"
       inkscape:collect="always"><stop
         style="stop-color:#4592fc;stop-opacity:1;"
         offset="0"
         id="stop18" /><stop
         style="stop-color:#8e38fd;stop-opacity:1;"
         offset="1"
         id="stop19" /></linearGradient><linearGradient
       inkscape:collect="always"
       xlink:href="#linearGradient18"
       id="linearGradient19"
       x1="100.03178"
       y1="135.19354"
       x2="106.82273"
       y2="144.81674"
       gradientUnits="userSpaceOnUse"
       gradientTransform="translate(49.317551,19.110681)" /></defs><g
     inkscape:label="Ciseal 1"
     inkscape:groupmode="layer"
     id="layer1"
     transform="translate(-148.18842,-153.13391)"><path
       id="path119"
       style="opacity:1;fill:url(#linearGradient19);stroke-linecap:round;stroke-linejoin:round;stroke-miterlimit:0;stroke-dashoffset:6.34959;paint-order:fill markers stroke"
       d="m 152.43832,153.1339 c -2.34479,-9e-5 -4.24998,1.90509 -4.24988,4.24987 a 0.28664317,0.28664317 0 0 0 0,0.002 c 0.007,1.17115 0.49685,2.28838 1.35342,3.08612 0.1426,0.17395 0.29504,0.35751 0.40824,0.51315 0.0581,0.0799 0.10604,0.15212 0.13488,0.20515 0.0216,0.0398 0.0282,0.0715 0.0294,0.0693 0.0137,0.3469 -0.0487,0.90453 -0.0589,1.47795 a 0.28664317,0.28664317 0 0 0 0,0.006 c 7e-5,1.31311 1.06968,2.38481 2.3828,2.38487 1.31312,-6e-5 2.3848,-1.07176 2.38487,-2.38487 a 0.28664317,0.28664317 0 0 0 0,-5.2e-4 0.28664317,0.28664317 0 0 0 0,-5.1e-4 0.28664317,0.28664317 0 0 0 0,-5.2e-4 0.28664317,0.28664317 0 0 0 0,-5.2e-4 0.28664317,0.28664317 0 0 0 0,-5.1e-4 0.28664317,0.28664317 0 0 0 0,-5.2e-4 0.28664317,0.28664317 0 0 0 0,-5.2e-4 0.28664317,0.28664317 0 0 0 0,-5.1e-4 0.28664317,0.28664317 0 0 0 0,-5.2e-4 0.28664317,0.28664317 0 0 0 0,-5.2e-4 0.28664317,0.28664317 0 0 0 0,-5.1e-4 0.28664317,0.28664317 0 0 0 0,-5.2e-4 0.28664317,0.28664317 0 0 0 0,-5.2e-4 0.28664317,0.28664317 0 0 0 0,-5.1e-4 0.28664317,0.28664317 0 0 0 0,-5.2e-4 c -0.0118,-0.47776 -0.0308,-1.20606 0.0139,-1.55081 -0.006,0.045 0.0483,-0.10786 0.15038,-0.25373 0.0997,-0.14244 0.23367,-0.3118 0.36535,-0.47491 0.84683,-0.79688 1.33025,-1.90656 1.33739,-3.0701 a 0.28664317,0.28664317 0 0 0 0,-5.1e-4 0.28664317,0.28664317 0 0 0 0,-5.2e-4 0.28664317,0.28664317 0 0 0 0,-5.2e-4 0.28664317,0.28664317 0 0 0 0,-5.1e-4 c 1e-4,-2.34458 -1.90735,-4.24967 -4.25194,-4.24987 z m 0,0.57206 c 2.03413,1.7e-4 3.67889,1.64187 3.67988,3.67574 -0.006,1.0142 -0.43085,1.98156 -1.17357,2.67219 a 0.28664317,0.28664317 0 0 0 -0.0295,0.0289 c -0.13671,0.16921 -0.28054,0.35143 -0.39842,0.51986 -0.11789,0.16844 -0.21972,0.28937 -0.24805,0.50746 -0.0194,0.14905 -0.0272,0.32897 -0.0315,0.51574 h -3.55327 c 0.006,-0.14246 0.008,-0.28022 0.003,-0.40618 -0.006,-0.1309 -0.0494,-0.21404 -0.0977,-0.30283 -0.0483,-0.0888 -0.109,-0.17804 -0.1757,-0.26975 -0.13339,-0.1834 -0.29544,-0.37686 -0.43925,-0.55242 a 0.28664317,0.28664317 0 0 0 -0.0274,-0.0295 c -0.74957,-0.69075 -1.17871,-1.66228 -1.18546,-2.68149 v -0.002 c 9.9e-4,-2.03405 1.64299,-3.67583 3.6773,-3.67574 z m -1.78645,8.5018 h 3.58479 c 0.004,0.19171 0.008,0.37783 0.0124,0.53537 0,0.0776 -0.007,0.15341 -0.016,0.22841 h -3.58893 c -0.009,-0.075 -0.016,-0.15078 -0.016,-0.22841 0.003,-0.1794 0.0129,-0.35847 0.0238,-0.53537 z m 0.16794,1.34566 h 3.23702 c -0.2965,0.59367 -0.90723,1.00042 -1.61851,1.00045 -0.71128,-3e-5 -1.32216,-0.40678 -1.61851,-1.00045 z" /></g></svg>
