<?xml version="1.0" encoding="UTF-8" standalone="no"?>
<!-- Created with Inkscape (http://www.inkscape.org/) -->

<svg
   width="16.122078mm"
   height="15.721207mm"
   viewBox="0 0 16.122078 15.721207"
   version="1.1"
   id="svg1"
   xml:space="preserve"
   inkscape:version="1.4 (e7c3feb1, 2024-10-09)"
   sodipodi:docname="Angular_ns_icons.svg"
   xmlns:inkscape="http://www.inkscape.org/namespaces/inkscape"
   xmlns:sodipodi="http://sodipodi.sourceforge.net/DTD/sodipodi-0.dtd"
   xmlns:xlink="http://www.w3.org/1999/xlink"
   xmlns="http://www.w3.org/2000/svg"
   xmlns:svg="http://www.w3.org/2000/svg"><sodipodi:namedview
     id="namedview1"
     pagecolor="#ffffff"
     bordercolor="#000000"
     borderopacity="0.25"
     inkscape:showpageshadow="2"
     inkscape:pageopacity="0.0"
     inkscape:pagecheckerboard="0"
     inkscape:deskcolor="#d1d1d1"
     inkscape:document-units="mm"
     inkscape:zoom="2.2113996"
     inkscape:cx="-566.15728"
     inkscape:cy="2064.5296"
     inkscape:window-width="2288"
     inkscape:window-height="1302"
     inkscape:window-x="1750"
     inkscape:window-y="35"
     inkscape:window-maximized="0"
     inkscape:current-layer="path33-4-3"><inkscape:page
       x="0"
       y="0"
       width="16.122078"
       height="15.721207"
       id="page2"
       margin="0"
       bleed="0" /></sodipodi:namedview><defs
     id="defs1"><linearGradient
       id="linearGradient92"
       inkscape:collect="always"><stop
         style="stop-color:#4592fc;stop-opacity:1;"
         offset="0"
         id="stop92" /><stop
         style="stop-color:#8e38fd;stop-opacity:1;"
         offset="1"
         id="stop93" /></linearGradient><linearGradient
       inkscape:collect="always"
       xlink:href="#linearGradient92"
       id="linearGradient93"
       x1="0"
       y1="7.8026414"
       x2="16"
       y2="7.8026414"
       gradientUnits="userSpaceOnUse"
       gradientTransform="matrix(1.0074288,0,0,1.0074288,149.01158,88.511741)" /></defs><g
     inkscape:label="Ciseal 1"
     inkscape:groupmode="layer"
     id="layer1"
     transform="translate(-149.01157,-88.511742)"><path
       fill-rule="evenodd"
       clip-rule="evenodd"
       d="m 157.07101,88.511737 c -4.45284,0 -8.05943,3.606589 -8.05943,8.05943 0,3.566293 2.307,6.578503 5.51063,7.646383 0.40296,0.0705 0.55408,-0.17124 0.55408,-0.38281 0,-0.19142 -0.009,-0.8261 -0.009,-1.50107 -2.02492,0.37274 -2.54878,-0.49365 -2.70999,-0.94698 -0.0906,-0.23172 -0.48356,-0.94699 -0.82607,-1.13841 -0.2821,-0.15114 -0.68506,-0.523877 -0.009,-0.533946 0.63468,-0.0093 1.08802,0.584316 1.23913,0.826096 0.72535,1.219 1.8839,0.87646 2.3473,0.66491 0.0705,-0.52386 0.28208,-0.87646 0.51379,-1.07795 -1.79321,-0.201484 -3.66702,-0.896618 -3.66702,-3.979349 0,-0.876459 0.31228,-1.60182 0.82607,-2.165975 -0.0806,-0.201484 -0.36267,-1.027577 0.0806,-2.135748 0,0 0.67499,-0.211553 2.21636,0.826094 0.64474,-0.181289 1.32979,-0.272008 2.01485,-0.272008 0.68505,0 1.37009,0.09064 2.01486,0.272008 1.54137,-1.047735 2.21634,-0.826094 2.21634,-0.826094 0.44327,1.108171 0.16119,1.934264 0.0806,2.135748 0.51378,0.564155 0.82609,1.279427 0.82609,2.165975 0,3.092801 -1.8839,3.777865 -3.67711,3.979349 0.29214,0.25186 0.54399,0.73542 0.54399,1.49099 0,1.07796 -0.009,1.94435 -0.009,2.21636 0,0.21155 0.15113,0.4634 0.55408,0.38281 3.18348,-1.06788 5.49049,-4.09016 5.49049,-7.646383 0,-4.452841 -3.60659,-8.05943 -8.05943,-8.05943 z"
       fill="#1b1f23"
       id="path1-0"
       style="display:inline;fill:url(#linearGradient93);stroke:none;stroke-width:1.00743"
       inkscape:export-filename="../nstudio/nativescript-angular-docs/github_community.svg"
       inkscape:export-xdpi="96"
       inkscape:export-ydpi="96" /></g></svg>
