<?xml version="1.0" encoding="UTF-8" standalone="no"?>
<!-- Created with Inkscape (http://www.inkscape.org/) -->

<svg
   width="12.233265mm"
   height="11.475382mm"
   viewBox="0 0 12.233265 11.475382"
   version="1.1"
   id="svg1"
   xml:space="preserve"
   inkscape:version="1.4 (e7c3feb1, 2024-10-09)"
   sodipodi:docname="Angular_ns_icons.svg"
   xmlns:inkscape="http://www.inkscape.org/namespaces/inkscape"
   xmlns:sodipodi="http://sodipodi.sourceforge.net/DTD/sodipodi-0.dtd"
   xmlns:xlink="http://www.w3.org/1999/xlink"
   xmlns="http://www.w3.org/2000/svg"
   xmlns:svg="http://www.w3.org/2000/svg"><sodipodi:namedview
     id="namedview1"
     pagecolor="#ffffff"
     bordercolor="#000000"
     borderopacity="0.25"
     inkscape:showpageshadow="2"
     inkscape:pageopacity="0.0"
     inkscape:pagecheckerboard="0"
     inkscape:deskcolor="#d1d1d1"
     inkscape:document-units="mm"
     inkscape:zoom="2.2113996"
     inkscape:cx="-566.15728"
     inkscape:cy="2064.5296"
     inkscape:window-width="2288"
     inkscape:window-height="1302"
     inkscape:window-x="1750"
     inkscape:window-y="35"
     inkscape:window-maximized="0"
     inkscape:current-layer="path33-4-3"><inkscape:page
       x="0"
       y="0"
       width="12.233265"
       height="11.475382"
       id="page2"
       margin="0"
       bleed="0" /></sodipodi:namedview><defs
     id="defs1"><linearGradient
       id="linearGradient26"
       inkscape:collect="always"><stop
         style="stop-color:#4592fc;stop-opacity:1;"
         offset="0"
         id="stop26" /><stop
         style="stop-color:#8e38fd;stop-opacity:1;"
         offset="1"
         id="stop27" /></linearGradient><linearGradient
       inkscape:collect="always"
       xlink:href="#linearGradient26"
       id="linearGradient27"
       x1="63.431049"
       y1="148.46318"
       x2="72.766457"
       y2="155.91136"
       gradientUnits="userSpaceOnUse"
       gradientTransform="translate(67.41445,7.3022789)" /></defs><g
     inkscape:label="Ciseal 1"
     inkscape:groupmode="layer"
     id="layer1"
     transform="translate(-129.52828,-153.692)"><path
       id="path121-1"
       style="opacity:1;fill:url(#linearGradient27);stroke-linecap:round;stroke-linejoin:round;stroke-miterlimit:0;stroke-dashoffset:6.34959;paint-order:fill markers stroke"
       d="m 137.87931,153.69362 a 0.30000049,0.30000049 0 0 0 -0.27079,0.25942 c -0.004,0.0325 -0.13629,0.21201 -0.31212,0.33796 -0.17584,0.12594 -0.34985,0.21084 -0.34985,0.21084 a 0.30000049,0.30000049 0 0 0 -0.076,0.0553 c -0.36556,-0.15668 -0.77794,-0.24421 -1.19992,-0.24598 -0.52544,-0.002 -1.04738,0.12929 -1.48777,0.35915 a 0.30000049,0.30000049 0 0 0 -0.0155,-0.008 c 0,0 -0.17401,-0.0828 -0.34985,-0.20878 -0.17584,-0.12595 -0.30769,-0.30749 -0.31213,-0.34003 a 0.30000049,0.30000049 0 0 0 -0.33796,-0.25786 0.30000049,0.30000049 0 0 0 -0.25787,0.33796 c 0.0514,0.37669 0.33333,0.58484 0.55863,0.74621 0.0573,0.0411 0.11387,0.0779 0.16639,0.11059 -0.38128,0.35444 -0.61458,0.83468 -0.49867,1.35495 0.0618,0.27724 0.11728,0.51187 0.20464,0.72244 0.0127,0.0307 0.0271,0.0607 0.0419,0.0904 -0.2251,0.12777 -0.42939,0.28378 -0.60926,0.47439 -0.54559,0.57817 -0.84489,1.42989 -0.91778,2.61741 l -2.01797,-0.0501 a 0.30000049,0.30000049 0 0 0 -0.30902,0.29094 0.30000049,0.30000049 0 0 0 0.293,0.3085 l 2.01693,0.0501 c -3e-5,0.0804 -1.3e-4,0.16133 0.002,0.24443 0.0105,0.51728 0.10297,1.0029 0.262,1.44591 a 0.30000049,0.30000049 0 0 0 -0.0186,0.004 c 0,0 -0.1151,0.0402 -0.25012,0.10129 -0.13501,0.0611 -0.2877,0.12751 -0.42581,0.26561 -0.10931,0.10929 -0.38228,0.41967 -0.65991,0.73432 -0.27763,0.31465 -0.53692,0.60927 -0.53692,0.60927 a 0.30000049,0.30000049 0 0 0 0.0289,0.42426 0.30000049,0.30000049 0 0 0 0.42375,-0.0274 c 0,0 0.25877,-0.2963 0.53537,-0.60978 0.2766,-0.31348 0.59455,-0.66844 0.63303,-0.70693 0.01,-0.01 0.13802,-0.0928 0.24805,-0.14263 0.11004,-0.0498 0.20465,-0.0817 0.20465,-0.0817 a 0.30000049,0.30000049 0 0 0 0.0568,-0.0279 c 0.65556,1.23739 1.88803,2.0252 3.3073,2.0252 1.3749,0 2.5239,-0.74208 3.17345,-1.91151 a 0.30000049,0.30000049 0 0 0 0.10903,0.0718 c 0,0 0.0951,0.0324 0.20516,0.0822 0.11003,0.0498 0.23834,0.13263 0.24804,0.14263 0.0385,0.0385 0.35644,0.39345 0.63304,0.70693 0.2766,0.31348 0.53485,0.60927 0.53485,0.60927 a 0.30000049,0.30000049 0 0 0 0.42375,0.0274 0.30000049,0.30000049 0 0 0 0.0295,-0.42375 c 0,0 -0.25928,-0.29513 -0.53691,-0.60978 -0.27763,-0.31465 -0.55112,-0.62503 -0.66043,-0.73432 -0.13811,-0.1381 -0.29079,-0.20452 -0.42581,-0.26562 -0.13502,-0.0611 -0.2496,-0.10129 -0.2496,-0.10129 a 0.30000049,0.30000049 0 0 0 -0.0703,-0.0145 c 0.18974,-0.48069 0.30425,-1.01536 0.32815,-1.5875 0.003,-0.081 0.005,-0.15969 0.007,-0.23822 l 2.07068,-0.0517 a 0.30000049,0.30000049 0 0 0 0.293,-0.30851 0.30000049,0.30000049 0 0 0 -0.3085,-0.29145 l -2.06241,0.0512 c -0.0348,-0.71162 -0.16226,-1.30662 -0.38086,-1.79627 a 0.25999951,0.25999951 0 0 0 0.28732,0.0538 c 0,0 0.16433,-0.0743 0.34934,-0.18759 0.18501,-0.1133 0.40073,-0.24929 0.53123,-0.48421 0.16289,-0.29319 0.34485,-0.58695 0.54312,-0.69711 0.12696,-0.0705 0.20993,-0.097 0.25218,-0.10594 0.0176,-0.004 0.0215,-0.005 0.0217,-0.006 a 0.25999951,0.25999951 0 0 0 0.2868,-0.2186 0.25999951,0.25999951 0 0 0 -0.21704,-0.29713 c 0,0 -0.0993,-0.007 -0.19896,0.014 -0.0996,0.0212 -0.23083,0.0662 -0.39635,0.15813 -0.3867,0.21485 -0.58205,0.60638 -0.74414,0.89813 -0.032,0.0576 -0.19541,0.2005 -0.34985,0.29508 -0.15445,0.0946 -0.29094,0.15658 -0.29094,0.15658 a 0.25999951,0.25999951 0 0 0 -0.1509,0.2682 c -0.12326,-0.24136 -0.26809,-0.45802 -0.44028,-0.64441 -0.18555,-0.20084 -0.39739,-0.36567 -0.63097,-0.50074 0.12342,-0.23582 0.20046,-0.52739 0.24908,-0.87437 0.0812,-0.5798 -0.20967,-1.09692 -0.65319,-1.44901 0.0588,-0.036 0.12286,-0.0769 0.18862,-0.12402 0.2253,-0.16137 0.50726,-0.36951 0.55862,-0.74621 a 0.30000049,0.30000049 0 0 0 -0.25786,-0.33796 0.30000049,0.30000049 0 0 0 -0.0672,-0.002 z m -2.2102,1.13688 c 0.5411,0.002 1.07423,0.18055 1.43557,0.4532 0.36133,0.27265 0.5461,0.60995 0.49196,0.99632 -0.0479,0.34211 -0.10915,0.56883 -0.19896,0.72864 -0.51026,-0.19117 -1.09968,-0.273 -1.74924,-0.2713 -0.6729,0.002 -1.27677,0.078 -1.79524,0.2651 -0.0116,-0.0229 -0.023,-0.047 -0.0341,-0.0739 -0.063,-0.15178 -0.11499,-0.36463 -0.1757,-0.63717 -0.0817,-0.36684 0.10683,-0.70302 0.49816,-0.98805 0.39133,-0.28503 0.97084,-0.47528 1.52756,-0.47284 z m -5.60174,1.7663 c -0.0109,3.7e-4 -0.017,0.001 -0.017,0.001 v -5.1e-4 a 0.25999951,0.25999951 0 0 0 -0.21704,0.29714 0.25999951,0.25999951 0 0 0 0.28473,0.21859 c -0.002,3.7e-4 5.8e-4,0.002 0.0217,0.006 0.0422,0.009 0.12729,0.0349 0.25425,0.10542 0.19827,0.11017 0.37816,0.40392 0.54105,0.69712 0.1305,0.23491 0.34829,0.37143 0.5333,0.48472 0.18501,0.1133 0.34727,0.18707 0.34726,0.18707 a 0.25999951,0.25999951 0 0 0 0.34365,-0.13074 0.25999951,0.25999951 0 0 0 -0.12867,-0.34365 c 0,0 -0.13649,-0.0615 -0.29094,-0.15606 -0.15445,-0.0946 -0.31786,-0.23749 -0.34985,-0.29508 -0.16209,-0.29175 -0.35744,-0.68379 -0.74414,-0.89865 -0.16552,-0.0919 -0.29671,-0.13698 -0.39636,-0.15813 -0.0747,-0.0158 -0.14922,-0.0156 -0.1819,-0.0145 z m 5.58107,0.66198 c 1.10997,-0.003 1.92606,0.24331 2.46083,0.82217 0.53476,0.57885 0.82513,1.53694 0.76171,3.05511 -0.0874,2.09112 -1.42018,3.51141 -3.22254,3.51141 -1.8025,0 -3.24707,-1.42477 -3.28921,-3.50573 -0.0318,-1.57042 0.26061,-2.52792 0.79272,-3.0918 0.5321,-0.56389 1.34847,-0.78826 2.49649,-0.79116 z m -0.1509,0.81338 a 0.285,0.285 0 0 0 -0.28525,0.28526 v 5.52317 a 0.285,0.285 0 0 0 0.28525,0.28526 0.285,0.285 0 0 0 0.28525,-0.28526 v -5.52317 a 0.285,0.285 0 0 0 -0.28525,-0.28526 z" /></g></svg>
