<?xml version="1.0" encoding="UTF-8" standalone="no"?>
<!-- Created with Inkscape (http://www.inkscape.org/) -->

<svg
   width="27.244095mm"
   height="28.826731mm"
   viewBox="0 0 27.244095 28.826731"
   version="1.1"
   id="svg1"
   xml:space="preserve"
   xmlns="http://www.w3.org/2000/svg"
   xmlns:svg="http://www.w3.org/2000/svg"><defs
     id="defs1"><linearGradient
       id="prefix__paint0_linear_9_19"
       x1="120.4"
       y1="463.79999"
       x2="504"
       y2="281.39999"
       gradientUnits="userSpaceOnUse"><stop
         stop-color="#E40035"
         id="stop6-5" /><stop
         offset=".2"
         stop-color="#F60A48"
         id="stop7-5" /><stop
         offset=".4"
         stop-color="#F20755"
         id="stop8-5" /><stop
         offset=".5"
         stop-color="#DC087D"
         id="stop9-4" /><stop
         offset=".7"
         stop-color="#9717E7"
         id="stop10" /><stop
         offset="1"
         stop-color="#6C00F5"
         id="stop11" /></linearGradient><linearGradient
       id="prefix__paint1_linear_9_19"
       x1="103"
       y1="61.400002"
       x2="354"
       y2="348"
       gradientUnits="userSpaceOnUse"><stop
         stop-color="#FF31D9"
         id="stop12" /><stop
         offset="1"
         stop-color="#FF5BE1"
         stop-opacity="0"
         id="stop13" /></linearGradient><clipPath
       id="prefix__clip0_9_19"><path
         fill="#ffffff"
         transform="translate(14)"
         d="M 0,0 H 484 V 512 H 0 Z"
         id="path13" /></clipPath></defs><g
     id="layer1"
     transform="translate(34.601182,-627.93694)"><g
       style="fill:none"
       id="g10"
       transform="matrix(0.05652302,0,0,0.05652302,-35.392506,627.9369)"><g
         clip-path="url(#prefix__clip0_9_19)"
         id="g6"><mask
           id="prefix__a"
           maskUnits="userSpaceOnUse"
           x="14"
           y="0"
           width="484"
           height="512"><path
             d="M 14,0 H 498 V 512 H 14 Z"
             fill="#ffffff"
             id="path1-3" /></mask><g
           mask="url(#prefix__a)"
           id="g5"><mask
             id="prefix__b"
             maskUnits="userSpaceOnUse"
             x="14"
             y="0"
             width="484"
             height="512"><path
               d="M 14,0 H 498 V 512 H 14 Z"
               fill="#ffffff"
               id="path2-0" /></mask><g
             mask="url(#prefix__b)"
             id="g4"><path
               d="M 496,86 478,358 312,0 Z M 380,438 256,510 130,438 154,376 H 356 Z M 256,136 320,296 H 190 Z M 32,358 14,86 198,0 Z"
               fill="url(#prefix__paint0_linear_9_19)"
               id="path3-4"
               style="fill:url(#prefix__paint0_linear_9_19)" /><path
               d="M 496,86 478,358 312,0 Z M 380,438 256,510 130,438 154,376 H 356 Z M 256,136 320,296 H 190 Z M 32,358 14,86 198,0 Z"
               fill="url(#prefix__paint1_linear_9_19)"
               id="path4-8"
               style="fill:url(#prefix__paint1_linear_9_19)" /></g></g></g></g></g><style
     type="text/css"
     id="style1">
	.st0{fill:#0F0F11;}
</style></svg>
