<?xml version="1.0" encoding="UTF-8" standalone="no"?>
<!-- Created with Inkscape (http://www.inkscape.org/) -->

<svg
   width="10.17257mm"
   height="10.172507mm"
   viewBox="0 0 10.17257 10.172507"
   version="1.1"
   id="svg1"
   xml:space="preserve"
   xmlns="http://www.w3.org/2000/svg"
   xmlns:svg="http://www.w3.org/2000/svg"><defs
     id="defs1" /><g
     id="layer1"
     transform="translate(502.76231,-462.6533)"><g
       id="g36-3-4"
       transform="matrix(1.1563566,0,0,1.1563566,-582.01276,375.49903)"
       style="fill:#281dd2;stroke:#281dd2;stroke-width:0.216196"><g
         id="path33-4-3"
         transform="translate(-12.359922,-0.65338796)"><path
           id="path73"
           style="stroke:none;stroke-linecap:round;stroke-linejoin:round;stroke-miterlimit:0;paint-order:fill markers stroke"
           d="m 85.292832,76.023059 c -2.42589,0 -4.398292,1.972418 -4.398292,4.398293 0,0.287936 0.05961,0.644104 0.123342,0.941597 0.03186,0.148746 0.0645,0.28325 0.09161,0.384773 0.01355,0.05076 0.02708,0.09203 0.03709,0.125129 0.01001,0.0331 0.01428,0.05159 0.02547,0.07597 0.03453,0.07525 0.103058,0.111019 0.159986,0.125129 0.05693,0.01411 0.109833,0.01176 0.156412,0.0018 0.05862,-0.01261 0.138266,-0.03078 0.197078,-0.101444 0.03599,-0.04324 0.05119,-0.09019 0.06078,-0.140771 0.0096,-0.05059 0.01125,-0.105676 -0.004,-0.161774 -0.01771,-0.06506 -0.21272,-0.812506 -0.21272,-1.249951 0,-2.082065 1.681643,-3.763709 3.763708,-3.763709 0.631532,-10e-7 1.161889,0.280328 1.683435,0.554591 -0.164158,0.01261 -0.304073,0.137821 -0.302991,0.304779 0.001,0.172997 0.143401,0.31539 0.316398,0.316398 a 0.10810881,0.10810881 0 0 0 0.0022,0 h 1.193197 c 0.18122,-7.45e-4 0.327362,-0.155171 0.316398,-0.336061 l -0.05452,-1.156105 c -0.01022,-0.173325 -0.160405,-0.308082 -0.333827,-0.29897 a 0.10810881,0.10810881 0 0 0 -0.0022,0 c -0.173992,0.01019 -0.308882,0.159967 -0.298969,0.333827 l 0.01788,0.490239 C 87.109894,76.351302 86.245074,76.02307 85.293302,76.02307 Z m 3.837893,2.644696 c -0.09251,-6.56e-4 -0.203768,0.02247 -0.275285,0.124682 -0.05532,0.07905 -0.04588,0.149916 -0.0429,0.209145 0.003,0.05923 0.01162,0.109488 0.01162,0.109488 a 0.10810881,0.10810881 0 0 0 0.0063,0.01966 c 0.172815,0.432218 0.226574,0.789684 0.226574,1.290619 0,2.082063 -1.681646,3.763709 -3.763709,3.763708 -0.734165,0 -1.344089,-0.344415 -1.922074,-0.70698 h 0.09966 c 0.174475,-5.89e-4 0.317097,-0.143713 0.316399,-0.318186 -5.86e-4,-0.173585 -0.14281,-0.315812 -0.316399,-0.316398 h -1.148507 c -0.181519,2.99e-4 -0.327377,0.154875 -0.316398,0.336061 a 0.10810881,0.10810881 0 0 0 0,0.0018 l 0.07418,1.144486 c 0.01019,0.173993 0.162201,0.308883 0.336062,0.298969 0.17456,-0.01022 0.309864,-0.16149 0.298969,-0.336061 a 0.10810881,0.10810881 0 0 0 0,-4.47e-4 0.10810881,0.10810881 0 0 0 0,-4.47e-4 0.10810881,0.10810881 0 0 0 0,-4.47e-4 0.10810881,0.10810881 0 0 0 0,-4.47e-4 l -0.02369,-0.361534 c 0.731867,0.54501 1.620543,0.894674 2.601794,0.894674 2.425874,10e-7 4.398293,-1.97285 4.398293,-4.398739 0,-0.30545 -0.05116,-0.63387 -0.111276,-0.905847 -0.06012,-0.271978 -0.121677,-0.473591 -0.166243,-0.566656 -0.03332,-0.06959 -0.06505,-0.129502 -0.105466,-0.17965 -0.04042,-0.05015 -0.09729,-0.100875 -0.177415,-0.101444 z" /></g></g></g><style
     type="text/css"
     id="style1">
	.st0{fill:#0F0F11;}
</style></svg>
