<?xml version="1.0" encoding="UTF-8" standalone="no"?>
<!-- Created with Inkscape (http://www.inkscape.org/) -->

<svg
   width="11.264138mm"
   height="11.17561mm"
   viewBox="0 0 11.264138 11.17561"
   version="1.1"
   id="svg1"
   xml:space="preserve"
   xmlns="http://www.w3.org/2000/svg"
   xmlns:svg="http://www.w3.org/2000/svg"><defs
     id="defs1" /><g
     id="layer1"
     transform="translate(483.58374,-458.63894)"><path
       id="path126"
       style="opacity:1;fill:#281dd2;fill-opacity:1;stroke:#281dd2;stroke-width:0.138323;stroke-linecap:round;stroke-linejoin:round;stroke-miterlimit:0;stroke-dasharray:none;stroke-dashoffset:6.34959;stroke-opacity:1;paint-order:fill markers stroke"
       d="m -472.66569,458.70808 c -0.0186,0.003 -0.0367,0.008 -0.0542,0.0143 -10e-4,-4.2e-4 -0.004,-8.2e-4 -0.005,-10e-4 v 6e-4 c 0,0 -2.07121,0.0204 -3.76642,0.67966 -0.48751,0.18959 -0.97235,0.62107 -1.47011,1.15501 -0.47376,0.50819 -0.94734,1.11405 -1.37837,1.70659 -0.0145,-0.003 -0.0293,-0.006 -0.044,-0.007 h -1.66431 c -0.17098,0 -0.32853,0.0431 -0.46998,0.0948 -0.14147,0.0516 -0.24826,0.0967 -0.35383,0.18466 -0.0376,0.0312 -0.0586,0.0507 -0.10363,0.0948 -0.0451,0.044 -0.10144,0.10155 -0.16857,0.16858 -0.13445,0.1342 -0.30631,0.30757 -0.47535,0.47951 -0.16904,0.17194 -0.33662,0.34234 -0.46581,0.47713 -0.0645,0.0674 -0.1179,0.12629 -0.15964,0.17156 -0.0209,0.0226 -0.0392,0.041 -0.0542,0.0583 -0.015,0.0173 -0.0205,0.015 -0.0519,0.0673 -0.0218,0.0362 -0.0871,0.1412 -0.13046,0.27698 -0.0217,0.0679 -0.0421,0.14742 -0.0292,0.25018 0.0129,0.10282 0.0835,0.23528 0.19359,0.30141 0.29627,0.17779 0.5835,0.10132 0.78986,0.10132 0.22417,0 1.09855,-0.0345 1.50407,-0.0506 0.006,0.0544 0.0279,0.10582 0.0632,0.14773 0.4069,0.39852 1.00401,1.05935 1.18836,1.24018 0.18435,0.18084 1.15976,1.00431 1.15976,1.00431 0.0495,0.0397 0.11112,0.0611 0.17453,0.0608 -0.0266,0.46728 -0.0652,1.16454 -0.0685,1.36467 -0.003,0.20632 -0.0856,0.49233 0.0869,0.79164 0.0642,0.11135 0.19585,0.18444 0.29844,0.19896 0.10247,0.0145 0.18205,-0.005 0.25018,-0.025 0.13651,-0.0409 0.24283,-0.10455 0.27937,-0.12569 0.0529,-0.0306 0.0508,-0.036 0.0685,-0.0506 0.0176,-0.0145 0.0365,-0.0325 0.0596,-0.053 0.046,-0.0409 0.10536,-0.0933 0.17394,-0.15666 0.13702,-0.12682 0.31059,-0.29206 0.48547,-0.45807 0.17485,-0.16602 0.35072,-0.3343 0.48726,-0.4664 0.0682,-0.0661 0.12743,-0.12122 0.17215,-0.1656 0.0448,-0.0444 0.0645,-0.0655 0.0965,-0.10247 0.0899,-0.10398 0.13656,-0.20912 0.19062,-0.34966 0.0541,-0.14055 0.099,-0.29786 0.10247,-0.46879 l 0.0297,-1.66371 c 1.9e-4,-0.0219 -0.002,-0.0437 -0.007,-0.0649 0.5564,-0.42247 1.11859,-0.88103 1.59342,-1.33847 0.52568,-0.50644 0.94841,-0.99744 1.12998,-1.48799 0.63131,-1.70579 0.6195,-3.77774 0.6195,-3.77774 1.9e-4,-0.15305 -0.12393,-0.27717 -0.27699,-0.27698 z m -0.28591,0.57601 c -0.0231,0.59945 -0.12289,2.0647 -0.57423,3.28511 -0.12101,0.32695 -0.4962,0.80217 -0.99537,1.28307 -0.49917,0.48091 -1.11787,0.98007 -1.7197,1.42962 -1.11887,0.83576 -2.02741,1.39469 -2.17061,1.48381 0,0 -0.81818,-0.70989 -0.99716,-0.86491 -0.17898,-0.15501 -0.67105,-0.68171 -0.99715,-1.0311 0.087,-0.14507 0.6304,-1.06052 1.44748,-2.19267 0.43962,-0.60912 0.92956,-1.23772 1.40221,-1.74472 0.47264,-0.507 0.94088,-0.88926 1.26579,-1.01562 1.28702,-0.50049 2.82449,-0.60848 3.33874,-0.63259 z m -2.80739,1.48857 c -0.67028,0 -1.22053,0.54728 -1.22053,1.21756 0,0.67027 0.55025,1.22052 1.22053,1.22052 0.67028,0 1.21754,-0.55025 1.21754,-1.22052 0,-0.67028 -0.54726,-1.21756 -1.21754,-1.21756 z m 0,0.47237 c 0.41532,0 0.74518,0.32986 0.74518,0.74519 0,0.41531 -0.32986,0.74756 -0.74518,0.74756 -0.41533,0 -0.74757,-0.33225 -0.74757,-0.74756 0,-0.41533 0.33224,-0.74519 0.74757,-0.74519 z m -5.28837,1.56483 h 1.31822 c -0.45144,0.64899 -0.80443,1.20218 -1.02575,1.55708 -0.0634,0.002 -1.59399,0.0596 -1.77211,0.0596 -0.19415,0 -0.30023,-0.0104 -0.38242,-0.0184 0.0115,-0.0211 0.0195,-0.0418 0.0292,-0.0583 0.009,-0.0104 0.0242,-0.0267 0.0429,-0.047 0.0374,-0.0406 0.0899,-0.096 0.15308,-0.16202 0.12642,-0.13189 0.29372,-0.30454 0.46165,-0.47535 0.16793,-0.1708 0.33786,-0.33989 0.47058,-0.47237 0.0664,-0.0663 0.12109,-0.12264 0.16381,-0.1644 0.0428,-0.0417 0.0847,-0.0799 0.0703,-0.0679 -0.0131,0.0115 0.0876,-0.053 0.18882,-0.0899 0.10121,-0.0369 0.22166,-0.0608 0.28175,-0.0608 z m 4.76298,3.18981 -0.0233,1.30809 c -10e-4,0.06 -0.0269,0.17993 -0.0655,0.28056 -0.0387,0.10052 -0.10443,0.20055 -0.0929,0.18764 0.0122,-0.0142 -0.0265,0.0264 -0.0692,0.0685 -0.0425,0.042 -0.0999,0.0961 -0.16738,0.16142 -0.13479,0.13039 -0.30701,0.29732 -0.48071,0.46224 -0.17371,0.16493 -0.349,0.32921 -0.48308,0.45331 -0.0671,0.0619 -0.12314,0.11354 -0.16441,0.1501 -0.0206,0.0184 -0.0368,0.0337 -0.0483,0.0417 -0.0167,0.009 -0.0378,0.0171 -0.059,0.0286 -0.007,-0.0823 -0.0153,-0.18893 -0.0119,-0.38301 0.003,-0.16817 0.0743,-1.47004 0.0858,-1.6792 0.36892,-0.23813 0.92992,-0.60964 1.57972,-1.07994 z m -5.48195,0.19597 c -0.0588,-0.003 -0.11701,0.0129 -0.16619,0.0453 0,0 -0.17927,0.11745 -0.36455,0.28175 -0.18528,0.16431 -0.41775,0.3502 -0.44378,0.6886 -0.0104,0.12859 -0.0731,0.54771 -0.13283,0.90959 -0.0564,0.34153 -0.08,0.4701 -0.1034,0.56045 -0.0266,0.0753 -0.0491,0.14744 -0.0813,0.23417 -0.0233,0.0627 -0.0486,0.1373 -0.0423,0.24124 0.006,0.10398 0.0829,0.25862 0.20908,0.32166 0.20263,0.10144 0.38126,0.0475 0.50199,0.0171 0.121,-0.0305 0.28326,-0.0852 0.34445,-0.0983 0.10386,-0.0224 0.18819,-0.0579 0.38064,-0.0944 0.19245,-0.0365 0.3771,-0.0716 0.54027,-0.15309 0.18379,-0.0919 0.37631,-0.25996 0.60103,-0.45212 0.11239,-0.0961 0.22276,-0.19359 0.3151,-0.28175 0.0923,-0.0882 0.1618,-0.15537 0.221,-0.23826 0.0896,-0.12433 0.0613,-0.29777 -0.0632,-0.38719 -0.1248,-0.0892 -0.29833,-0.0601 -0.38719,0.0649 -0.005,0.006 -0.0708,0.0809 -0.15309,0.15964 -0.0823,0.0786 -0.18725,0.17101 -0.29307,0.2615 -0.21165,0.18097 -0.47166,0.36897 -0.49023,0.37826 -0.0392,0.0196 -0.20682,0.11019 -0.38116,0.14316 -0.17435,0.0331 -0.33809,0.0643 -0.43513,0.0764 -0.10063,0.0126 -0.18443,-0.001 -0.25353,0.0258 0,0 0.0569,-0.32375 0.11734,-0.68918 0.0604,-0.36541 0.12401,-0.75637 0.13938,-0.95665 -7.4e-4,0.009 0.10928,-0.18456 0.25913,-0.31749 0.14989,-0.13291 0.29902,-0.23171 0.29902,-0.23171 0.12815,-0.0833 0.16466,-0.25468 0.0816,-0.38302 -0.0485,-0.0749 -0.13007,-0.12193 -0.21921,-0.12629 z" /></g><style
     type="text/css"
     id="style1">
	.st0{fill:#0F0F11;}
</style></svg>
